<?xml version="1.0" encoding="UTF-8" standalone="no"?>
<svg
   xmlns:dc="http://purl.org/dc/elements/1.1/"
   xmlns:cc="http://creativecommons.org/ns#"
   xmlns:rdf="http://www.w3.org/1999/02/22-rdf-syntax-ns#"
   xmlns:svg="http://www.w3.org/2000/svg"
   xmlns="http://www.w3.org/2000/svg"
   xmlns:sodipodi="http://sodipodi.sourceforge.net/DTD/sodipodi-0.dtd"
   xmlns:inkscape="http://www.inkscape.org/namespaces/inkscape"
   inkscape:version="1.0 (6e3e5246a0, 2020-05-07)"
   sodipodi:docname="bike1.svg"
   xml:space="preserve"
   enable-background="new 0 0 315 227.833"
   viewBox="0 0 315 227.833"
   height="227.833px"
   width="315px"
   y="0px"
   x="0px"
   id="Layer_1"
   version="1.1"><metadata
   id="metadata78"><rdf:RDF><cc:Work
       rdf:about=""><dc:format>image/svg+xml</dc:format><dc:type
         rdf:resource="http://purl.org/dc/dcmitype/StillImage" /></cc:Work></rdf:RDF></metadata><defs
   id="defs76" /><sodipodi:namedview
   inkscape:current-layer="Layer_1"
   inkscape:window-maximized="1"
   inkscape:window-y="27"
   inkscape:window-x="72"
   inkscape:cy="108.84276"
   inkscape:cx="222.38143"
   inkscape:zoom="1.7318193"
   showgrid="false"
   id="namedview74"
   inkscape:window-height="704"
   inkscape:window-width="1294"
   inkscape:pageshadow="2"
   inkscape:pageopacity="0"
   guidetolerance="10"
   gridtolerance="10"
   objecttolerance="10"
   borderopacity="1"
   bordercolor="#666666"
   pagecolor="#ffffff" />
<g
   transform="matrix(0.4978479,0,0,0.49938418,130.64195,58.788468)"
   id="g116"><g
     id="Layer_1_1_"
     transform="translate(3.3810836,-4.6013818)">
	<g
   id="g70">
		<path
   fill="none"
   stroke="#006837"
   stroke-width="13.3978"
   stroke-linecap="round"
   stroke-linejoin="round"
   d="m 307.762,160.821 c 0,27.756 -22.498,50.252 -50.25,50.252 -27.756,0 -50.254,-22.496 -50.254,-50.252 0,-27.75 22.498,-50.246 50.254,-50.246 27.752,-0.001 50.25,22.496 50.25,50.246 z"
   id="path2" />
		<path
   fill="none"
   stroke="#006837"
   stroke-width="3.3495"
   stroke-linecap="round"
   stroke-linejoin="round"
   d="m 198.182,148.948 c 5.519,-27.719 29.982,-48.615 59.33,-48.615"
   id="path4" />
		<path
   fill="none"
   stroke="#8cc63f"
   stroke-width="3.3495"
   stroke-linecap="round"
   stroke-linejoin="round"
   d="m 300.053,160.821 c 0,23.498 -19.049,42.545 -42.541,42.545 -23.496,0 -42.545,-19.047 -42.545,-42.545 0,-23.492 19.049,-42.539 42.545,-42.539 23.492,0.001 42.541,19.047 42.541,42.539 z"
   id="path6" />
		<path
   fill="none"
   stroke="#39b54a"
   stroke-width="6.6988"
   stroke-linejoin="round"
   d="M 209.171,16.358"
   id="path8" />
		<polygon
   fill="#39b54a"
   stroke="#39b54a"
   stroke-width="5.5823"
   stroke-linecap="round"
   stroke-linejoin="round"
   points="137.309,120.125 143.741,145.924 149.514,145.727 149.514,127.607 195.947,127.607 219.986,85.413 217.456,74.634 194.703,112.707 184.662,112.707 186.234,109.293 145.84,109.293 129.717,120.125 "
   id="polygon10" />
		<path
   fill="none"
   stroke="#009245"
   stroke-width="2.233"
   stroke-linecap="round"
   stroke-linejoin="round"
   d="M 150.5,138.659"
   id="path12" />
		<path
   fill="none"
   stroke="#009245"
   stroke-width="2.233"
   stroke-linecap="round"
   stroke-linejoin="round"
   d="M 59.165,158.077"
   id="path14" />
		<polyline
   fill="none"
   stroke="#39b54a"
   stroke-width="6.6988"
   stroke-linecap="round"
   stroke-linejoin="round"
   points="    218.396,74.287 205.837,40.169 214.491,35.156 206.428,16.341 200.518,18.673   "
   id="polyline16" />
		
			<line
   fill="none"
   stroke="#39b54a"
   stroke-width="11.1648"
   stroke-linejoin="round"
   x1="225.661"
   y1="94.028999"
   x2="213.17101"
   y2="60.091999"
   id="line18" />
		
			<line
   fill="none"
   stroke="#39b54a"
   stroke-width="7.8153"
   stroke-linecap="round"
   stroke-linejoin="round"
   x1="185.16"
   y1="25.202999"
   x2="198.74699"
   y2="18.273001"
   id="line20" />
		
			<line
   fill="none"
   stroke="#39b54a"
   stroke-width="11.1648"
   stroke-linejoin="round"
   x1="127.647"
   y1="96.112999"
   x2="150.5"
   y2="160.133"
   id="line22" />
		<polyline
   fill="none"
   stroke="#39b54a"
   stroke-width="6.6988"
   stroke-linejoin="round"
   points="112.492,70.827 114.59,77.588     121.256,77.588 127.647,96.113   "
   id="polyline24" />
		<path
   fill="none"
   stroke="#39b54a"
   stroke-width="5.5823"
   stroke-linejoin="round"
   d="M 99.272,59.536"
   id="path26" />
		<path
   fill="#8cc63f"
   stroke="#8cc63f"
   stroke-width="4.466"
   stroke-linecap="round"
   stroke-linejoin="round"
   d="m 88.729,57.434 22.424,0.564 29.243,0.046 6.464,6.15 -19.202,2.789 -14.181,4.826 C 93.151,69.873 88.729,57.434 88.729,57.434 Z"
   id="path28" />
		
			<line
   fill="none"
   stroke="#39b54a"
   stroke-width="5.5823"
   stroke-linejoin="round"
   x1="170.938"
   y1="125.936"
   x2="150.5"
   y2="160.133"
   id="line30" />
		
			<circle
   fill="#8cc63f"
   stroke="#8cc63f"
   stroke-width="4.2357"
   stroke-linecap="round"
   stroke-linejoin="round"
   cx="257.51199"
   cy="160.825"
   r="3.615"
   id="circle32" />
		<path
   fill="none"
   stroke="#006837"
   stroke-width="13.3978"
   stroke-linecap="round"
   stroke-linejoin="round"
   d="m 112.068,160.821 c 0,27.756 -22.498,50.252 -50.25,50.252 -27.754,0 -50.252,-22.496 -50.252,-50.252 0,-27.75 22.498,-50.246 50.252,-50.246 27.752,-0.001 50.25,22.496 50.25,50.246 z"
   id="path34" />
		<path
   fill="none"
   stroke="#006837"
   stroke-width="3.3495"
   stroke-linecap="round"
   stroke-linejoin="round"
   d="m 2.529,148.743 c 5.598,-27.618 30.015,-48.409 59.288,-48.409 28.315,0 52.086,19.455 58.679,45.724"
   id="path36" />
		<path
   fill="none"
   stroke="#8cc63f"
   stroke-width="3.3495"
   stroke-linecap="round"
   stroke-linejoin="round"
   d="m 104.36,160.821 c 0,23.498 -19.048,42.545 -42.542,42.545 -23.495,0 -42.543,-19.047 -42.543,-42.545 0,-23.492 19.048,-42.539 42.543,-42.539 23.494,0.001 42.542,19.047 42.542,42.539 z"
   id="path38" />
		<circle
   fill="none"
   stroke="#8cc63f"
   stroke-width="11.1648"
   stroke-miterlimit="10"
   cx="61.854"
   cy="161.028"
   r="8.2969999"
   id="circle40" />
		
			<line
   fill="none"
   stroke="#8cc63f"
   stroke-width="11.1648"
   stroke-miterlimit="10"
   x1="61.854"
   y1="152.729"
   x2="150.5"
   y2="142.645"
   id="line42" />
		
			<line
   fill="none"
   stroke="#8cc63f"
   stroke-width="11.1648"
   stroke-miterlimit="10"
   x1="150.5"
   y1="177.62"
   x2="61.854"
   y2="169.325"
   id="line44" />
		<polyline
   fill="none"
   stroke="#39b54a"
   stroke-width="5.5823"
   stroke-linejoin="round"
   points="150.5,160.133 61.817,160.602     132.603,109.642   "
   id="polyline46" />
		<circle
   fill="#39b54a"
   stroke="#8cc63f"
   stroke-width="11.1648"
   stroke-miterlimit="10"
   cx="150.49899"
   cy="160.132"
   r="17.487"
   id="circle48" />
		
			<polyline
   fill="none"
   stroke="#39b54a"
   stroke-width="6.6988"
   stroke-linecap="round"
   stroke-linejoin="round"
   stroke-miterlimit="10"
   points="    53.658,207.133 61.817,174 61.817,161.27   "
   id="polyline50" />
		<circle
   fill="#8cc63f"
   stroke="#39b54a"
   stroke-width="4.466"
   stroke-miterlimit="10"
   cx="53.654999"
   cy="207.13499"
   r="17.188999"
   id="circle52" />
		<circle
   fill="#39b54a"
   cx="185.16"
   cy="25.202999"
   r="6.572"
   id="circle54" />
		<circle
   fill="#39b54a"
   cx="198.74699"
   cy="18.273001"
   r="6.0100002"
   id="circle56" />
		<path
   fill="#39b54a"
   d="m 211.752,11.81 h -9.52 V 6.933 c 0,-1.892 1.535,-3.425 3.427,-3.425 h 2.667 c 1.89,0 3.425,1.534 3.425,3.425 z"
   id="path58" />
		<g
   id="g62">
			<path
   fill="#39b54a"
   d="m 201.234,10.68 h -2.314 c -0.752,0 -1.361,-0.609 -1.361,-1.362 0,-0.751 0.609,-1.36 1.361,-1.36 h 2.314 z"
   id="path60" />
		</g>
		<polyline
   fill="none"
   stroke="#39b54a"
   stroke-width="7.8153"
   stroke-linecap="round"
   stroke-linejoin="round"
   points="    257.512,160.823 228.092,100.629 218.396,74.287   "
   id="polyline64" />
		
			<line
   fill="none"
   stroke="#8cc63f"
   stroke-width="5.5823"
   stroke-linecap="round"
   stroke-linejoin="round"
   x1="140.44701"
   y1="197.651"
   x2="150.5"
   y2="160.133"
   id="line66" />
		
			<line
   fill="none"
   stroke="#8cc63f"
   stroke-width="5.5823"
   stroke-linecap="round"
   stroke-linejoin="round"
   x1="133.283"
   y1="197.651"
   x2="148.19901"
   y2="197.651"
   id="line68" />
	</g>
</g></g>
</svg>
