<?xml version="1.0" encoding="utf-8"?>
<!-- Generator: Adobe Illustrator 16.0.0, SVG Export Plug-In . SVG Version: 6.00 Build 0)  -->
<!DOCTYPE svg PUBLIC "-//W3C//DTD SVG 1.1//EN" "http://www.w3.org/Graphics/SVG/1.1/DTD/svg11.dtd">
<svg version="1.1" id="Layer_1" xmlns="http://www.w3.org/2000/svg" xmlns:xlink="http://www.w3.org/1999/xlink" x="0px" y="0px"
	 width="315px" height="210px" viewBox="0 0 315 210" enable-background="new 0 0 315 210" xml:space="preserve">
<g id="Layer_1_1_">
	<g>
		<g>
			<path fill="#8CC63F" d="M114.957,72.09H45.25c-0.094,0-0.187-0.012-0.278-0.03l-8.116-1.703
				c-0.728-0.152-1.199-0.872-1.046-1.603c0.154-0.731,0.87-1.195,1.602-1.046l7.979,1.672h69.568c0.747,0,1.354,0.605,1.354,1.354
				C116.312,71.482,115.704,72.09,114.957,72.09z"/>
		</g>
		<g>
			<path fill="#006837" d="M252.628,201.621c-32.924,0-59.708-26.786-59.708-59.707s26.784-59.707,59.708-59.707
				c32.922,0,59.706,26.786,59.706,59.707C312.334,174.839,285.55,201.621,252.628,201.621z M252.628,90.332
				c-28.446,0-51.589,23.138-51.589,51.584c0,28.448,23.143,51.588,51.589,51.588c28.44,0,51.587-23.14,51.587-51.588
				C304.215,113.47,281.068,90.332,252.628,90.332z"/>
		</g>
		<g>
			<path fill="#39B54A" d="M189.59,139.309c-0.023,0-0.057,0-0.084-0.002c-0.746-0.049-1.312-0.691-1.264-1.437
				c0.939-15.22,7.296-29.666,17.902-40.683c10.57-10.983,24.709-17.886,39.812-19.44c0.739-0.069,1.412,0.466,1.487,1.209
				c0.074,0.743-0.467,1.411-1.209,1.484c-14.469,1.489-28.017,8.104-38.146,18.626c-10.157,10.554-16.248,24.394-17.149,38.976
				C190.896,138.754,190.301,139.309,189.59,139.309z"/>
		</g>
		<g>
			<path fill="#39B54A" d="M124.708,146.837c-0.021,0-0.051,0-0.076,0c-0.747-0.045-1.318-0.68-1.277-1.428
				c0.065-1.151,0.101-2.324,0.101-3.493c0-34.078-27.731-61.804-61.812-61.804c-22.759,0-43.616,12.456-54.434,32.504
				c-0.352,0.657-1.172,0.901-1.831,0.546c-0.658-0.354-0.903-1.173-0.551-1.831c11.29-20.922,33.062-33.924,56.815-33.924
				c35.576,0,64.517,28.937,64.517,64.509c0,1.216-0.035,2.443-0.103,3.643C126.018,146.277,125.421,146.837,124.708,146.837z"/>
		</g>
		<g>
			<path fill="#006837" d="M61.646,201.621c-32.922,0-59.707-26.786-59.707-59.707s26.785-59.707,59.707-59.707
				s59.707,26.786,59.707,59.707C121.353,174.839,94.568,201.621,61.646,201.621z M61.646,90.332
				c-28.445,0-51.586,23.138-51.586,51.584c0,28.448,23.139,51.588,51.586,51.588c28.447,0,51.588-23.14,51.588-51.588
				C113.234,113.47,90.092,90.332,61.646,90.332z"/>
		</g>
		<g>
			<path fill="#8CC63F" d="M61.646,195.451c-29.52,0-53.535-24.016-53.535-53.535c0-29.518,24.016-53.533,53.535-53.533
				s53.536,24.018,53.536,53.533C115.182,171.438,91.166,195.451,61.646,195.451z M61.646,91.806
				c-27.632,0-50.109,22.478-50.109,50.11c0,27.631,22.478,50.111,50.109,50.111s50.113-22.479,50.113-50.111
				C111.759,114.285,89.277,91.806,61.646,91.806z"/>
		</g>
		<g>
			<path fill="#8CC63F" d="M252.628,195.451c-29.521,0-53.536-24.016-53.536-53.535c0-29.518,24.018-53.533,53.536-53.533
				s53.535,24.018,53.535,53.533C306.163,171.438,282.146,195.451,252.628,195.451z M252.628,91.806
				c-27.632,0-50.112,22.478-50.112,50.11c0,27.631,22.48,50.111,50.112,50.111c27.631,0,50.108-22.479,50.108-50.111
				C302.74,114.285,280.26,91.806,252.628,91.806z"/>
		</g>
		<g>
			<circle fill="#8CC63F" cx="252.629" cy="141.916" r="3.756"/>
		</g>
		<g>
			<circle fill="#8CC63F" cx="61.645" cy="141.916" r="5.454"/>
			<path fill="#009245" d="M61.644,149.08c-3.95,0-7.164-3.215-7.164-7.164s3.214-7.165,7.164-7.165
				c3.952,0,7.166,3.218,7.166,7.165C68.81,145.865,65.596,149.08,61.644,149.08z M61.644,138.173c-2.062,0-3.741,1.677-3.741,3.743
				c0,2.064,1.679,3.741,3.741,3.741c2.063,0,3.743-1.677,3.743-3.741C65.387,139.85,63.707,138.173,61.644,138.173z"/>
		</g>
		<g>
			<circle fill="#8CC63F" cx="61.644" cy="141.916" r="3.104"/>
		</g>
		<g>
			<path fill="#009245" d="M140.475,161.691c-0.048,0-0.095-0.004-0.144-0.012l-79.013-12.603c-0.493-0.079-0.827-0.541-0.75-1.033
				c0.081-0.491,0.538-0.83,1.033-0.75l79.013,12.603c0.493,0.078,0.827,0.541,0.749,1.033
				C141.294,161.377,140.911,161.691,140.475,161.691z"/>
		</g>
		<g>
			<path fill="#009245" d="M61.63,136.514c-0.483,0-0.883-0.383-0.901-0.869c-0.021-0.496,0.37-0.916,0.867-0.935l84.414-3.183
				c0.498-0.021,0.917,0.369,0.936,0.867c0.02,0.496-0.369,0.918-0.866,0.935l-84.415,3.185
				C61.653,136.514,61.642,136.514,61.63,136.514z"/>
		</g>
		<g>
			<path fill="#39B54A" d="M208.714,48.075c-0.39,0-0.786-0.103-1.146-0.316c-1.072-0.634-1.424-2.017-0.793-3.089l9.279-15.693
				l-4.537-12.064c-0.438-1.166,0.148-2.466,1.317-2.905c1.165-0.438,2.466,0.152,2.901,1.317l4.916,13.076
				c0.242,0.64,0.179,1.354-0.168,1.942l-9.83,16.623C210.236,47.678,209.484,48.075,208.714,48.075z"/>
		</g>
		<g>
			<path fill="#39B54A" d="M210.123,51.679c-0.902,0-1.755-0.544-2.105-1.437l-3.082-7.91c-0.451-1.161,0.123-2.467,1.285-2.92
				c1.16-0.45,2.469,0.122,2.922,1.282l3.082,7.911c0.45,1.161-0.123,2.468-1.287,2.92
				C210.673,51.632,210.395,51.679,210.123,51.679z"/>
		</g>
		<g>
			
				<rect x="200.859" y="59.788" transform="matrix(-0.363 -0.9318 0.9318 -0.363 234.8998 286.4775)" fill="#39B54A" width="29.028" height="6.316"/>
		</g>
		<g>
			<path fill="#39B54A" d="M252.631,144.174c-0.713,0-1.417-0.339-1.852-0.965l-14.651-21c-0.104-0.145-0.187-0.307-0.252-0.473
				l-17.317-44.443c-0.451-1.162,0.123-2.469,1.282-2.921c1.157-0.45,2.468,0.123,2.921,1.284l17.223,44.195l14.496,20.778
				c0.713,1.021,0.463,2.431-0.56,3.142C253.525,144.043,253.076,144.174,252.631,144.174z"/>
		</g>
		<g>
			
				<rect x="72.866" y="94.415" transform="matrix(-0.342 -0.9397 0.9397 -0.342 77.0951 248.2269)" fill="#39B54A" width="105.177" height="5.412"/>
		</g>
		<g>
			<path fill="#8CC63F" d="M71.072,131.204c-0.522,0-1.019-0.306-1.24-0.812L44.01,71.279c-0.302-0.685,0.015-1.486,0.699-1.786
				c0.679-0.299,1.483,0.017,1.782,0.701l25.82,59.115c0.298,0.684-0.013,1.483-0.698,1.786
				C71.437,131.17,71.252,131.204,71.072,131.204z"/>
		</g>
		<g>
			
				<rect x="177.56" y="52.955" transform="matrix(-0.7317 -0.6816 0.6816 -0.7317 239.2238 308.1897)" fill="#39B54A" width="5.413" height="108.116"/>
		</g>
		<g>
			<path fill="#39B54A" d="M143.453,148.799c-0.042,0-0.085-0.002-0.13-0.004l-81.806-4.627c-1.243-0.07-2.194-1.138-2.126-2.381
				c0.072-1.244,1.13-2.176,2.381-2.123l81.806,4.629c1.244,0.07,2.194,1.135,2.126,2.381
				C145.636,147.871,144.641,148.799,143.453,148.799z"/>
		</g>
		<g>
			<path fill="#39B54A" d="M61.194,143.723c-0.403,0-0.804-0.139-1.143-0.41c-0.768-0.633-0.882-1.77-0.253-2.539l55.78-68.114
				c0.632-0.773,1.768-0.885,2.54-0.254c0.768,0.632,0.882,1.769,0.253,2.538l-55.78,68.12
				C62.234,143.493,61.716,143.723,61.194,143.723z"/>
		</g>
		<g>
			<path fill="none" stroke="#39B54A" stroke-width="6.3157" stroke-linecap="round" stroke-linejoin="round" d="M212.488,16.375"/>
		</g>
		<g>
			<path fill="#39B54A" d="M212.492,19.532c-0.104,0-0.217-0.005-0.326-0.017l-11.831-1.211c-1.733-0.177-2.997-1.728-2.815-3.463
				c0.176-1.735,1.721-2.993,3.463-2.819l11.832,1.21c1.734,0.177,2.998,1.728,2.818,3.463
				C215.464,18.322,214.094,19.532,212.492,19.532z"/>
		</g>
		<g>
			<circle fill="#009245" cx="200.656" cy="15.164" r="2.122"/>
		</g>
		<g>
			<circle fill="#8CC63F" cx="143.45" cy="146.542" r="15.688"/>
		</g>
		<g>
			<path fill="#8CC63F" d="M135.329,179.117c-0.193,0-0.391-0.023-0.584-0.077c-1.208-0.325-1.917-1.56-1.595-2.765l8.124-30.319
				c0.324-1.203,1.559-1.911,2.763-1.595c1.203,0.322,1.917,1.56,1.594,2.767l-8.124,30.315
				C137.236,178.455,136.326,179.117,135.329,179.117z"/>
		</g>
		<g>
			<path fill="#8CC63F" d="M141.592,179.117H129.54c-1.25,0-2.256-1.012-2.256-2.258c0-1.244,1.006-2.256,2.256-2.256h12.049
				c1.249,0,2.255,1.012,2.255,2.256C143.844,178.105,142.838,179.117,141.592,179.117z"/>
		</g>
		<g>
			<path fill="#8CC63F" d="M100.145,52.706c-5.571,0-9.041-0.305-10.923-0.959c-0.812-0.281-1.312-1.096-1.196-1.949l0.718-5.292
				c0.059-0.4,0.242-0.77,0.531-1.05l2.886-2.808c0.354-0.346,0.827-0.522,1.33-0.512l12.576,0.472l23.628-0.439
				c0.494-0.025,0.952,0.178,1.294,0.516l4.218,4.136c0.489,0.479,0.664,1.193,0.452,1.845c-0.21,0.652-0.773,1.126-1.45,1.229
				l-14.35,2.14l-11.8,2.48c-0.103,0.021-0.205,0.035-0.309,0.039C104.899,52.656,102.339,52.706,100.145,52.706z"/>
		</g>
		<g>
			<path fill="#39B54A" d="M159.166,149.4c-1.744,0-3.154-1.416-3.154-3.159c0-6.722-5.473-12.191-12.194-12.191H77.372
				c-1.743,0-3.158-1.414-3.158-3.157c0-1.746,1.417-3.158,3.158-3.158h66.446c10.202,0,18.504,8.306,18.504,18.508
				C162.324,147.988,160.911,149.4,159.166,149.4z"/>
		</g>
		<g>
			<path fill="#39B54A" d="M134.693,123.312v-5.199c4.637,0,16.118-3.54,40.909-27.232c21.205-20.269,36.23-34.451,36.381-34.591
				l3.568,3.782c-0.148,0.14-15.168,14.311-36.357,34.57C159.287,113.666,144.316,123.312,134.693,123.312z"/>
		</g>
	</g>
</g>
</svg>
