<?xml version="1.0" encoding="UTF-8" standalone="no"?>
<svg
   xmlns:dc="http://purl.org/dc/elements/1.1/"
   xmlns:cc="http://creativecommons.org/ns#"
   xmlns:rdf="http://www.w3.org/1999/02/22-rdf-syntax-ns#"
   xmlns:svg="http://www.w3.org/2000/svg"
   xmlns="http://www.w3.org/2000/svg"
   xmlns:sodipodi="http://sodipodi.sourceforge.net/DTD/sodipodi-0.dtd"
   xmlns:inkscape="http://www.inkscape.org/namespaces/inkscape"
   inkscape:version="1.0 (6e3e5246a0, 2020-05-07)"
   sodipodi:docname="bola1.svg"
   version="1.1"
   width="512"
   viewBox="0 0 256 256"
   height="512"
   enable-background="new 0 0 256 256"
   id="Layer_1">
  <metadata
     id="metadata85">
    <rdf:RDF>
      <cc:Work
         rdf:about="">
        <dc:format>image/svg+xml</dc:format>
        <dc:type
           rdf:resource="http://purl.org/dc/dcmitype/StillImage" />
      </cc:Work>
    </rdf:RDF>
  </metadata>
  <defs
     id="defs83" />
  <sodipodi:namedview
     inkscape:current-layer="Layer_1"
     inkscape:window-maximized="1"
     inkscape:window-y="27"
     inkscape:window-x="72"
     inkscape:cy="256"
     inkscape:cx="256"
     inkscape:zoom="1.0898438"
     showgrid="false"
     id="namedview81"
     inkscape:window-height="704"
     inkscape:window-width="1294"
     inkscape:pageshadow="2"
     inkscape:pageopacity="0"
     guidetolerance="10"
     gridtolerance="10"
     objecttolerance="10"
     borderopacity="1"
     bordercolor="#666666"
     pagecolor="#ffffff" />
  <g
     transform="matrix(0.5,0,0,0.5,3.4503248,3.4503388)"
     id="g78">
    <g
       id="g4">
      <circle
         id="circle2"
         r="120"
         fill="#e0ebfc"
         cy="128"
         cx="128" />
    </g>
    <g
       id="g8">
      <path
         id="path6"
         fill="#4671c6"
         d="M 8.001,128.111 42.156,103.296 28.42,61.02 C 15.527,80.15 8,103.196 8,128 c 0,0.037 10e-4,0.074 10e-4,0.111 z" />
    </g>
    <g
       id="g12">
      <path
         id="path10"
         fill="#4671c6"
         d="M 88.734,14.579 128,43.108 167.266,14.579 C 154.962,10.32 141.753,8 128,8 114.247,8 101.038,10.32 88.734,14.579 Z" />
    </g>
    <g
       id="g16">
      <path
         id="path14"
         fill="#4671c6"
         d="m 75.987,203.079 -42.776,-1.494 c 13.706,17.63 32.218,31.338 53.574,39.148 z" />
    </g>
    <g
       id="g20">
      <path
         id="path18"
         fill="#4671c6"
         d="m 169.224,240.731 c 21.353,-7.811 39.863,-21.519 53.567,-39.147 l -42.77,1.494 z" />
    </g>
    <g
       id="g24">
      <path
         id="path22"
         fill="#4671c6"
         d="m 213.603,103.294 34.393,24.988 c 0.002,-0.001 0.001,-0.001 0.003,-0.002 0.057,-25.016 -7.541,-48.252 -20.583,-67.502 z" />
    </g>
    <g
       id="g28">
      <path
         id="path26"
         fill="#4671c6"
         d="m 128,81.108 -47.553,34.549 18.164,55.902 h 58.778 l 18.164,-55.902 z" />
    </g>
    <g
       id="g32">
      <path
         id="path30"
         fill="#3762cc"
         d="M 157.39,173.559 H 98.61 c -0.866,0 -1.635,-0.558 -1.902,-1.382 L 78.545,116.276 c -0.268,-0.824 0.025,-1.727 0.727,-2.236 l 47.553,-34.549 c 0.701,-0.509 1.65,-0.509 2.352,0 l 47.553,34.549 c 0.701,0.509 0.994,1.412 0.727,2.236 l -18.163,55.901 c -0.27,0.823 -1.038,1.382 -1.904,1.382 z m -57.327,-4 h 55.873 L 173.201,116.422 128,83.58 82.799,116.421 Z" />
    </g>
    <g
       id="g36">
      <path
         id="path34"
         fill="#3762cc"
         d="M 128,250 C 60.729,250 6,195.271 6,128 6,60.729 60.729,6 128,6 c 67.271,0 122,54.729 122,122 0,67.271 -54.729,122 -122,122 z M 128,10 C 62.935,10 10,62.935 10,128 10,193.065 62.935,246 128,246 193.065,246 246,193.065 246,128 246,62.935 193.065,10 128,10 Z" />
    </g>
    <g
       id="g40">
      <path
         id="path38"
         fill="#3762cc"
         d="m 247.357,129.82 c -0.407,0 -0.818,-0.124 -1.174,-0.382 l -33.756,-24.526 c -0.701,-0.509 -0.994,-1.412 -0.727,-2.236 l 13.436,-41.35 c 0.341,-1.05 1.468,-1.626 2.521,-1.284 1.051,0.342 1.625,1.47 1.284,2.521 l -12.986,39.968 32.58,23.671 c 0.894,0.649 1.092,1.9 0.442,2.794 -0.391,0.538 -1,0.824 -1.62,0.824 z" />
    </g>
    <g
       id="g44">
      <path
         id="path42"
         fill="#3762cc"
         d="m 175.553,117.658 c -0.844,0 -1.628,-0.537 -1.902,-1.382 -0.341,-1.051 0.233,-2.179 1.284,-2.521 l 38.051,-12.363 c 1.053,-0.342 2.18,0.234 2.521,1.284 0.341,1.051 -0.233,2.179 -1.284,2.521 l -38.051,12.363 c -0.206,0.066 -0.415,0.098 -0.619,0.098 z" />
    </g>
    <g
       id="g48">
      <path
         id="path46"
         fill="#3762cc"
         d="m 169.422,242.043 c -0.183,0 -0.368,-0.025 -0.553,-0.078 -1.062,-0.304 -1.675,-1.412 -1.371,-2.474 l 10.601,-36.966 c 0.239,-0.833 0.987,-1.417 1.854,-1.447 l 41.739,-1.458 c 1.093,-0.011 2.03,0.826 2.068,1.929 0.038,1.104 -0.825,2.03 -1.93,2.068 l -40.286,1.407 -10.2,35.569 c -0.252,0.879 -1.053,1.45 -1.922,1.45 z" />
    </g>
    <g
       id="g52">
      <path
         id="path50"
         fill="#3762cc"
         d="m 180.023,205.077 c -0.623,0 -1.235,-0.29 -1.627,-0.833 l -22.632,-31.519 c -0.644,-0.897 -0.438,-2.147 0.458,-2.791 0.899,-0.645 2.146,-0.438 2.792,0.458 l 22.632,31.519 c 0.644,0.897 0.438,2.147 -0.458,2.791 -0.353,0.253 -0.761,0.375 -1.165,0.375 z" />
    </g>
    <g
       id="g56">
      <path
         id="path54"
         fill="#3762cc"
         d="m 75.987,205.079 c -0.023,0 -0.047,0 -0.071,-0.001 l -1.716,-0.06 c -0.048,-0.002 -0.069,-0.003 -40.328,-1.409 -1.104,-0.038 -1.968,-0.964 -1.93,-2.068 0.039,-1.104 0.972,-1.95 2.068,-1.929 40.266,1.406 40.287,1.407 40.334,1.409 l 1.712,0.06 c 1.104,0.038 1.967,0.964 1.929,2.068 -0.038,1.08 -0.925,1.93 -1.998,1.93 z" />
    </g>
    <g
       id="g60">
      <path
         id="path58"
         fill="#3762cc"
         d="m 86.522,241.827 c -0.87,0 -1.67,-0.572 -1.922,-1.449 L 74.063,203.63 c -0.168,-0.588 -0.059,-1.221 0.298,-1.717 l 22.624,-31.521 c 0.644,-0.897 1.894,-1.104 2.791,-0.459 0.897,0.644 1.103,1.894 0.459,2.791 l -22.06,30.734 10.271,35.817 c 0.304,1.062 -0.31,2.169 -1.371,2.474 -0.184,0.053 -0.37,0.078 -0.553,0.078 z" />
    </g>
    <g
       id="g64">
      <path
         id="path62"
         fill="#3762cc"
         d="m 8.947,129.425 c -0.619,0 -1.229,-0.286 -1.62,-0.824 -0.649,-0.894 -0.451,-2.145 0.442,-2.794 L 39.804,102.532 26.871,62.726 c -0.341,-1.051 0.233,-2.179 1.284,-2.521 1.053,-0.34 2.181,0.234 2.521,1.284 l 13.383,41.188 c 0.268,0.824 -0.025,1.727 -0.727,2.236 l -33.211,24.129 c -0.355,0.259 -0.767,0.383 -1.174,0.383 z" />
    </g>
    <g
       id="g68">
      <path
         id="path66"
         fill="#3762cc"
         d="m 80.447,117.658 c -0.203,0 -0.41,-0.031 -0.614,-0.097 L 41.542,105.2 c -1.052,-0.339 -1.628,-1.467 -1.289,-2.518 0.339,-1.051 1.466,-1.628 2.518,-1.289 l 38.291,12.361 c 1.052,0.339 1.628,1.467 1.289,2.518 -0.274,0.847 -1.059,1.386 -1.904,1.386 z" />
    </g>
    <g
       id="g72">
      <path
         id="path70"
         fill="#3762cc"
         d="m 128,45.108 c -0.412,0 -0.825,-0.127 -1.176,-0.382 L 88.202,16.666 c -0.894,-0.649 -1.092,-1.9 -0.442,-2.794 0.649,-0.893 1.899,-1.092 2.794,-0.442 L 128,40.636 165.363,13.49 c 0.896,-0.65 2.146,-0.45 2.794,0.442 0.649,0.894 0.451,2.145 -0.442,2.794 l -38.539,28 c -0.351,0.254 -0.764,0.382 -1.176,0.382 z" />
    </g>
    <g
       id="g76">
      <path
         id="path74"
         fill="#3762cc"
         d="m 128,83.108 c -1.104,0 -2,-0.896 -2,-2 v -38 c 0,-1.104 0.896,-2 2,-2 1.104,0 2,0.896 2,2 v 38 c 0,1.104 -0.896,2 -2,2 z" />
    </g>
  </g>
</svg>
