<?xml version="1.0" encoding="UTF-8" standalone="no"?>
<svg
   xmlns:dc="http://purl.org/dc/elements/1.1/"
   xmlns:cc="http://creativecommons.org/ns#"
   xmlns:rdf="http://www.w3.org/1999/02/22-rdf-syntax-ns#"
   xmlns:svg="http://www.w3.org/2000/svg"
   xmlns="http://www.w3.org/2000/svg"
   xmlns:sodipodi="http://sodipodi.sourceforge.net/DTD/sodipodi-0.dtd"
   xmlns:inkscape="http://www.inkscape.org/namespaces/inkscape"
   id="Filled"
   height="512"
   viewBox="0 0 512 512"
   width="512"
   version="1.1"
   sodipodi:docname="carro2.svg"
   inkscape:version="1.0 (6e3e5246a0, 2020-05-07)">
  <metadata
     id="metadata47">
    <rdf:RDF>
      <cc:Work
         rdf:about="">
        <dc:format>image/svg+xml</dc:format>
        <dc:type
           rdf:resource="http://purl.org/dc/dcmitype/StillImage" />
      </cc:Work>
    </rdf:RDF>
  </metadata>
  <defs
     id="defs45" />
  <sodipodi:namedview
     inkscape:document-rotation="0"
     pagecolor="#ffffff"
     bordercolor="#666666"
     borderopacity="1"
     objecttolerance="10"
     gridtolerance="10"
     guidetolerance="10"
     inkscape:pageopacity="0"
     inkscape:pageshadow="2"
     inkscape:window-width="1294"
     inkscape:window-height="704"
     id="namedview43"
     showgrid="false"
     inkscape:zoom="1.0898438"
     inkscape:cx="256"
     inkscape:cy="256"
     inkscape:window-x="72"
     inkscape:window-y="27"
     inkscape:window-maximized="1"
     inkscape:current-layer="Filled" />
  <g
     id="g69"
     transform="matrix(0.25,0,0,0.25,12,60)">
    <path
       id="path2"
       fill="#606669"
       d="M 428.068,248 A 16,16 0 0 1 412.684,236.4 L 397.26,182.42 A 64,64 0 0 0 335.72,136 H 208.28 a 64,64 0 0 0 -61.54,46.42 l -12.108,42.372 A 32,32 0 0 1 103.863,248 H 83.11 A 32.015,32.015 0 0 0 51.54,274.74 L 48,296 40,344 h 432 l -8,-48 -3.54,-21.26 A 32.015,32.015 0 0 0 428.89,248 Z" />
    <path
       id="path4"
       fill="#dadcde"
       d="m 24,344 h 464 v 32 H 24 Z" />
    <circle
       id="circle6"
       r="48"
       fill="#606669"
       cy="376"
       cx="136" />
    <circle
       id="circle8"
       r="16"
       fill="#e9eef2"
       cy="376"
       cx="136" />
    <circle
       id="circle10"
       r="48"
       fill="#606669"
       cy="376"
       cx="376" />
    <g
       id="g18"
       fill="#e9eef2">
      <circle
         id="circle12"
         r="16"
         cy="376"
         cx="376" />
      <path
         id="path14"
         d="m 256,248 h -96 l 17.158,-57.195 A 32,32 0 0 1 207.809,168 H 256 Z" />
      <path
         id="path16"
         d="m 288,248 h 96 L 366.842,190.805 A 32,32 0 0 0 336.191,168 H 288 Z" />
    </g>
    <rect
       id="rect20"
       y="88"
       x="208"
       width="128"
       rx="16"
       height="48"
       fill="#d13330" />
    <path
       id="path22"
       fill="#67c5e0"
       d="m 336,104 v 16 a 16,16 0 0 1 -16,16 H 288 V 88 h 32 a 16,16 0 0 1 16,16 z" />
    <path
       id="path24"
       fill="#606669"
       d="m 256,88 h 32 v 48 h -32 z" />
    <path
       id="path26"
       fill="#7e8589"
       d="m 256,248 v 96 H 171.77 A 47.806,47.806 0 0 0 144,328.67 V 264 a 16,16 0 0 1 16,-16 z" />
    <path
       id="path28"
       fill="#b6b9ba"
       d="M 169.6,216 H 208 v 32 h -48" />
    <path
       id="path30"
       fill="#7e8589"
       d="m 384,248 v 80.67 A 48,48 0 0 0 340.23,344 H 288 v -96 z" />
    <path
       id="path32"
       fill="#d13330"
       d="m 464,296 h -32 a 16,16 0 0 1 -16,-16 v -37.49 a 16.027,16.027 0 0 0 12.07,5.49 h 0.82 a 32.015,32.015 0 0 1 31.57,26.74 z" />
    <path
       id="path34"
       fill="#ffe76c"
       d="M 103.86,248 H 83.11 A 32.015,32.015 0 0 0 51.54,274.74 L 48,296 h 48 a 16,16 0 0 0 16,-16 v -33.06 a 31.386,31.386 0 0 1 -8.14,1.06 z" />
    <path
       id="path36"
       d="m 488,336 h -9.223 L 468.351,273.421 A 39.894,39.894 0 0 0 428.89,240 h -0.822 a 8.036,8.036 0 0 1 -7.692,-5.8 L 404.952,180.225 A 72.342,72.342 0 0 0 342.505,128.338 23.892,23.892 0 0 0 344,120 V 104 A 24.027,24.027 0 0 0 320,80 h -96 a 24.027,24.027 0 0 0 -24,24 v 16 a 23.892,23.892 0 0 0 1.5,8.336 72.342,72.342 0 0 0 -62.447,51.886 L 126.94,222.594 A 24.1,24.1 0 0 1 103.863,240 H 83.11 A 39.893,39.893 0 0 0 43.649,273.426 L 33.223,336 H 24 a 8,8 0 0 0 -8,8 v 32 a 8,8 0 0 0 8,8 h 56.581 a 55.992,55.992 0 0 0 110.838,0 h 129.162 a 55.992,55.992 0 0 0 110.838,0 H 488 a 8,8 0 0 0 8,-8 v -32 a 8,8 0 0 0 -8,-8 z m -64,-80.356 a 23.74,23.74 0 0 0 4.068,0.356 h 0.822 a 23.941,23.941 0 0 1 23.679,20.055 L 454.559,288 H 432 a 8.009,8.009 0 0 1 -8,-8 z M 296,96 h 24 a 8.009,8.009 0 0 1 8,8 v 16 a 8.009,8.009 0 0 1 -8,8 h -24 z m -32,0 h 16 v 32 h -16 z m -48,8 a 8.009,8.009 0 0 1 8,-8 h 24 v 32 h -24 a 8.009,8.009 0 0 1 -8,-8 z M 59.431,276.06 A 23.941,23.941 0 0 1 83.11,256 H 103.863 104 v 24 a 8.009,8.009 0 0 1 -8,8 H 57.441 Z M 80.581,368 H 32 v -16 h 53.414 a 55.52,55.52 0 0 0 -4.833,16 z M 136,416 a 40,40 0 1 1 40,-40 40.045,40.045 0 0 1 -40,40 z m 39.138,-80 A 56.025,56.025 0 0 0 152,322.341 V 264 a 8.009,8.009 0 0 1 8,-8 h 88 v 16 h -24 a 8,8 0 0 0 0,16 h 24 v 48 z M 208,208 h -27.648 l 4.469,-14.9 A 23.851,23.851 0 0 1 207.809,176 H 248 v 64 h -32 v -24 a 8,8 0 0 0 -8,-8 z m -8,16 v 16 h -29.248 l 4.8,-16 z M 320.581,368 H 191.419 a 55.52,55.52 0 0 0 -4.833,-16 h 138.828 a 55.52,55.52 0 0 0 -4.833,16 z M 296,336 v -80 h 80 v 16 h -24 a 8,8 0 0 0 0,16 h 24 v 32 a 55.8,55.8 0 0 0 -39.138,16 z m 0,-96 v -64 h 40.191 a 23.851,23.851 0 0 1 22.988,17.1 l 14.069,46.9 z m 80,176 a 40,40 0 1 1 40,-40 40.045,40.045 0 0 1 -40,40 z m 39.138,-80 A 56.025,56.025 0 0 0 392,322.341 V 248 h -0.013 a 8,8 0 0 0 -0.324,-2.3 L 374.5,188.506 A 39.754,39.754 0 0 0 336.191,160 H 288 a 8,8 0 0 0 -8,8 V 336 H 264 V 168 a 8,8 0 0 0 -8,-8 H 207.809 A 39.754,39.754 0 0 0 169.5,188.506 l -15.7,52.309 A 24.041,24.041 0 0 0 136,264 v 56 A 55.8,55.8 0 0 0 96.862,336 H 49.443 l 5.332,-32 H 96 a 24.028,24.028 0 0 0 24,-24 v -27.438 a 40.146,40.146 0 0 0 22.324,-25.572 l 12.109,-42.373 A 56.236,56.236 0 0 1 208.28,144 h 127.44 a 56.238,56.238 0 0 1 53.848,40.618 L 404.992,238.6 A 23.732,23.732 0 0 0 408,245.112 V 280 a 24.027,24.027 0 0 0 24,24 h 25.225 l 5.332,32 z M 480,368 h -48.581 a 55.52,55.52 0 0 0 -4.833,-16 H 480 Z" />
    <path
       id="path38"
       d="m 136,352 a 24,24 0 1 0 24,24 24.027,24.027 0 0 0 -24,-24 z m 0,32 a 8,8 0 1 1 8,-8 8.009,8.009 0 0 1 -8,8 z" />
    <path
       id="path40"
       d="m 376,352 a 24,24 0 1 0 24,24 24.027,24.027 0 0 0 -24,-24 z m 0,32 a 8,8 0 1 1 8,-8 8.009,8.009 0 0 1 -8,8 z" />
  </g>
</svg>
