<?xml version="1.0" encoding="UTF-8" standalone="no"?>
<svg
   xmlns:dc="http://purl.org/dc/elements/1.1/"
   xmlns:cc="http://creativecommons.org/ns#"
   xmlns:rdf="http://www.w3.org/1999/02/22-rdf-syntax-ns#"
   xmlns:svg="http://www.w3.org/2000/svg"
   xmlns="http://www.w3.org/2000/svg"
   xmlns:sodipodi="http://sodipodi.sourceforge.net/DTD/sodipodi-0.dtd"
   xmlns:inkscape="http://www.inkscape.org/namespaces/inkscape"
   inkscape:version="1.0 (6e3e5246a0, 2020-05-07)"
   sodipodi:docname="cubo2.svg"
   version="1.1"
   width="512"
   viewBox="0 0 511.972 511.972"
   height="512"
   enable-background="new 0 0 511.972 511.972"
   id="Capa_1">
  <metadata
     id="metadata15">
    <rdf:RDF>
      <cc:Work
         rdf:about="">
        <dc:format>image/svg+xml</dc:format>
        <dc:type
           rdf:resource="http://purl.org/dc/dcmitype/StillImage" />
        <dc:title></dc:title>
      </cc:Work>
    </rdf:RDF>
  </metadata>
  <defs
     id="defs13" />
  <sodipodi:namedview
     inkscape:current-layer="Capa_1"
     inkscape:window-maximized="1"
     inkscape:window-y="27"
     inkscape:window-x="72"
     inkscape:cy="145.89247"
     inkscape:cx="500.53047"
     inkscape:zoom="1.0898438"
     showgrid="false"
     id="namedview11"
     inkscape:window-height="704"
     inkscape:window-width="1294"
     inkscape:pageshadow="2"
     inkscape:pageopacity="0"
     guidetolerance="10"
     gridtolerance="10"
     objecttolerance="10"
     borderopacity="1"
     bordercolor="#666666"
     pagecolor="#ffffff" />
  <g
     transform="matrix(0.8,0,0,0.8,64.733642,5.4136662)"
     id="g21">
    <path
       d="M 455.357,118.733 268.19,10.753 C 260.638,6.395 251.335,6.397 243.783,10.756 L 56.764,118.732 c -7.554,4.361 -12.207,12.42 -12.207,21.143 l 199.226,164.938 c 7.551,4.359 16.854,4.361 24.407,0.004 L 467.57,139.88 c 0.001,-8.725 -4.655,-16.786 -12.213,-21.147 z"
       fill="#b3e59f"
       id="path2" />
    <path
       d="m 256.142,504.465 c 4.161,-0.026 8.319,-1.095 12.048,-3.246 L 455.357,393.238 c 7.558,-4.36 12.214,-12.422 12.214,-21.147 V 139.88 c 0,-4.355 -1.162,-8.544 -3.264,-12.191 L 256.142,247.848 Z"
       fill="#ffe07d"
       id="path4" />
    <path
       d="m 255.829,504.465 c -4.161,-0.026 -8.319,-1.095 -12.048,-3.246 L 56.615,393.238 C 49.057,388.878 44.401,380.816 44.401,372.091 V 139.88 c 0,-4.355 1.162,-8.544 3.264,-12.191 l 208.164,120.159 z"
       fill="#ff8086"
       id="path6" />
    <path
       d="M 459.027,112.237 271.86,4.256 c -9.84,-5.677 -22.066,-5.675 -31.905,0.005 L 52.936,112.237 c -9.842,5.682 -15.957,16.272 -15.957,27.638 v 232.222 c 0,11.366 6.114,21.956 15.957,27.638 L 239.955,507.71 c 4.921,2.841 10.438,4.262 15.957,4.262 5.514,0 11.029,-1.419 15.948,-4.256 l 57.689,-33.282 c 0.526,-0.226 1.016,-0.515 1.471,-0.849 l 69.371,-40.022 c 0.341,-0.166 0.671,-0.352 0.981,-0.566 l 57.654,-33.262 c 9.848,-5.682 15.965,-16.274 15.965,-27.643 V 139.88 c 0.001,-11.369 -6.116,-21.961 -15.964,-27.643 z M 334.093,367.746 v -69.484 l 55.528,-32.059 v 69.484 z m 55.528,-14.739 v 69.452 l -55.528,32.035 v -69.428 z m -267.27,-17.32 v -69.484 l 55.528,32.059 v 69.484 z m 55.528,49.38 v 69.484 L 122.351,422.492 V 353.008 Z M 51.979,139.875 c 0,-0.363 0.013,-0.724 0.036,-1.084 l 55.335,31.948 v 69.484 L 51.978,208.254 v -68.379 z m 133.479,-86.829 55.528,32.059 -55.489,32.037 -55.528,-32.059 z m 70.528,40.719 55.489,32.037 -55.489,32.037 -55.489,-32.037 z M 381.973,85.1 326.475,117.142 270.986,85.105 326.463,53.075 Z m 77.983,53.692 c 0.023,0.361 0.036,0.724 0.036,1.089 v 68.374 l -55.372,31.969 v -36.116 c 0,-4.142 -3.358,-7.5 -7.5,-7.5 -4.142,0 -7.5,3.358 -7.5,7.5 v 44.776 l -55.528,32.059 V 211.46 Z m -203.97,100.441 -55.489,-32.037 55.489,-32.037 55.489,32.037 z m -7.422,13.035 v 69.483 l -55.685,-32.149 v -69.483 z m 15,-0.09 55.529,-32.06 v 69.483 l -55.529,32.06 z m 62.911,-53.642 -55.489,-32.037 55.489,-32.037 55.489,32.037 z m -85.489,-32.037 -55.489,32.037 -55.49,-32.037 55.489,-32.037 z m -118.635,12.9 55.528,32.059 v 69.483 l -55.528,-32.059 z m 70.528,127.524 55.685,32.149 v 69.484 l -55.685,-32.15 z m 70.685,32.059 55.529,-32.06 v 69.484 l -55.529,32.06 z m 141.057,-81.439 55.372,-31.969 v 69.483 l -55.372,31.969 z m 47.831,-131.74 -55.488,32.036 -55.489,-32.037 55.503,-32.045 54.552,31.473 c 0.315,0.181 0.622,0.374 0.922,0.573 z M 247.455,17.252 c 5.214,-3.011 11.694,-3.013 16.909,-0.002 l 47.093,27.169 -55.471,32.027 -55.528,-32.059 z m -132.486,76.491 55.528,32.059 -55.489,32.037 -55.492,-32.038 c 0.3,-0.2 0.606,-0.392 0.921,-0.573 z m -62.99,278.354 v -59.719 l 9.119,5.265 c 1.181,0.682 2.471,1.006 3.743,1.006 2.592,0 5.113,-1.346 6.502,-3.751 2.071,-3.587 0.842,-8.174 -2.745,-10.245 l -16.619,-9.595 v -69.483 l 55.372,31.969 v 69.484 l -10.767,-6.216 c -3.587,-2.073 -8.174,-0.842 -10.245,2.745 -2.071,3.587 -0.842,8.174 2.745,10.245 l 18.267,10.546 v 69.484 L 60.436,386.746 c -5.216,-3.013 -8.457,-8.626 -8.457,-14.649 z m 140.9,91.113 v -69.484 l 55.685,32.15 v 69.425 c -0.375,-0.181 -0.746,-0.372 -1.109,-0.582 z m 71.485,31.513 c -0.263,0.152 -0.531,0.29 -0.8,0.427 v -69.363 l 55.529,-32.06 v 69.422 z m 187.167,-107.981 -46.91,27.064 v -69.458 l 55.372,-31.969 v 59.713 c -10e-4,6.025 -3.243,11.639 -8.462,14.65 z"
       id="path8" />
  </g>
</svg>
